<svg xmlns="http://www.w3.org/2000/svg" viewBox="-3 -3 30 30">
  <!-- Fondo circular del icono -->
  <path fill-rule="evenodd" clip-rule="evenodd"
    d="M12 2C6.47715 2 2 6.47715 2 12C2 17.5229 6.47715 22 12 22C17.5229 22 22 17.5229 22 12C22 6.47715 17.5229 2 12 2ZM0 12C0 5.3726 5.3726 0 12 0C18.6274 0 24 5.3726 24 12C24 18.6274 18.6274 24 12 24C5.3726 24 0 18.6274 0 12Z"
    fill="rgba(0,0,0,0.7)" stroke="none" />
  <!-- Diseño interno simbolizando una cámara -->
  <path fill-rule="evenodd" clip-rule="evenodd"
    d="M8 12a1 1 0 0 1 1-1h6a1 1 0 1 1 0 2h-6a1 1 0 0 1-1-1zm2-3a1 1 0 1 0-2 0 1 1 0 0 0 2 0zm3-2a2 2 0 1 0 0 4 2 2 0 0 0 0-4zm0 1a1 1 0 1 1 0 2 1 1 0 0 1 0-2zm1 4h2a1 1 0 1 1 0 2h-2a1 1 0 1 1 0-2zm3 2a1 1 0 1 0 2 0 1 1 0 0 0-2 0z"
    fill="rgba(0,0,0,0.7)" stroke="none" />
</svg>
